<svg width="16" height="16" viewBox="0 0 16 16" fill="none" xmlns="http://www.w3.org/2000/svg">
<path d="M9.18 11H0.765L3.808 4.1745H12.1125C12.8378 4.1745 13.481 4.27933 14.042 4.489C14.8297 4.77233 15.2235 5.2115 15.2235 5.8065C15.2235 6.0105 15.1725 6.22867 15.0705 6.461L14.059 8.7305C13.7077 9.51817 13.0135 10.1132 11.9765 10.5155C11.1378 10.8385 10.2057 11 9.18 11ZM10.914 6.189C10.914 5.77533 10.438 5.5685 9.486 5.5685H7.463L5.678 9.589H7.769C8.32433 9.589 8.76067 9.52383 9.078 9.3935C9.49167 9.2235 9.79767 8.9175 9.996 8.4755L10.761 6.75C10.863 6.51767 10.914 6.33067 10.914 6.189Z" fill="#F02621"/>
</svg>
