<?xml version="1.0" encoding="UTF-8"?>
<svg id="Layer_1" xmlns="http://www.w3.org/2000/svg" viewBox="0 0 2605.33 288.53">
  <defs>
    <style>
      .cls-1 {
        fill: none;
      }

      .cls-2 {
        fill: #d0d0d0;
      }
    </style>
  </defs>
  <rect class="cls-1" y="22.65" width="2605.33" height="185.61"/>
  <path class="cls-2" d="M248.4,207.34H20.7L103.04,22.65h224.71c19.63,0,37.03,2.84,52.21,8.51,21.31,7.67,31.97,19.55,31.97,35.65,0,5.52-1.38,11.42-4.14,17.71l-27.37,61.41c-9.51,21.31-28.29,37.42-56.35,48.3-22.69,8.74-47.92,13.11-75.67,13.11ZM295.32,77.16c0-11.19-12.88-16.79-38.64-16.79h-54.74l-48.3,108.79h56.58c15.03,0,26.83-1.76,35.42-5.29,11.19-4.6,19.47-12.88,24.84-24.84l20.7-46.69c2.76-6.29,4.14-11.35,4.14-15.18Z"/>
  <path class="cls-2" d="M721.28,207.57h-124.43c-13.03-10.27-22.46-25.84-28.29-46.69h-39.79l-20.7,46.69h-115.92L474.49,22.65h221.26c56.27,0,84.41,13.72,84.41,41.17,0,7.51-2.99,17.63-8.97,30.36-16.41,35.73-50.45,57.27-102.12,64.63,6.29,9.05,14.11,18.17,23.46,27.37,10.73,10.27,20.32,17.4,28.75,21.39ZM667,72.75c0-3.67-2.22-6.72-6.67-9.17-3.83-2.14-7.67-3.21-11.5-3.21h-75.21l-28.75,64.17h77.28c5.21,0,10.81-1.53,16.79-4.58,6.59-3.21,10.89-6.95,12.88-11.23l14.26-32.08c.61-1.37.92-2.67.92-3.9Z"/>
  <path class="cls-2" d="M1021.66,208.26h-193.2c-12.57,0-23.46-2.3-32.66-6.9-11.65-5.98-17.48-14.64-17.48-25.99,0-5.67,1.46-11.73,4.37-18.17l38.41-86.02c7.67-17.33,20.16-30.44,37.49-39.33,15.49-7.82,33.43-11.73,53.82-11.73l192.97-.23c14.57,0,26.83,2.38,36.8,7.13,13.03,6.13,19.55,15.72,19.55,28.75,0,6.59-1.84,13.88-5.52,21.85l-31.97,72.22c-8.89,19.78-22.92,34.73-42.09,44.85-17.33,9.05-37.49,13.57-60.49,13.57ZM1040.06,67.27c0-4.6-5.21-6.9-15.64-6.9h-55.66c-15.95,0-26.45,5.75-31.51,17.25l-33.81,75.67c-1.69,3.83-2.53,6.75-2.53,8.74,0,5.06,6.13,7.59,18.4,7.59h53.82c8.43,0,14.72-1.15,18.86-3.45,4.75-2.45,8.74-7.28,11.96-14.49l32.2-72.45c2.61-5.98,3.91-9.97,3.91-11.96Z"/>
  <path class="cls-2" d="M1274.2,160.88l-20.7,46.46h-115.92l82.34-184.69h221.26c56.27,0,84.41,13.72,84.41,41.17,0,7.67-2.99,17.79-8.97,30.36-20.7,44.47-65.47,66.7-134.32,66.7h-108.1ZM1412.43,72.75c0-3.67-2.22-6.72-6.67-9.17-3.83-2.14-7.67-3.21-11.5-3.21h-75.21l-28.75,64.17h75.21c5.52,0,11.5-1.45,17.94-4.36,7.21-3.21,11.8-7.03,13.8-11.46l14.26-32.08c.61-1.37.92-2.67.92-3.9Z"/>
  <path class="cls-2" d="M1627.25,207.34h-119.6l82.34-184.69h119.6l-82.34,184.69Z"/>
  <path class="cls-2" d="M1997.54,133.74h-169.97l-32.66,73.6h-126.27l82.34-184.69h296.24l-16.79,37.72h-170.2l-15.87,35.65h169.97l-16.79,37.72Z"/>
  <path class="cls-2" d="M2489.28,22.65c-69.46,36.04-136.93,76.21-202.4,120.52l-28.52,64.17h-119.6l28.06-63.48c-25.3-41.86-56.73-82.26-94.3-121.21h130.18c13.95,18.25,29.9,41.71,47.84,70.38,35.27-22.84,72.37-46.3,111.32-70.38h127.42Z"/>
  <path class="cls-2" d="M2548.85,81.3h-42.09c-4.75,0-9.05-1.15-12.88-3.45-4.45-2.76-6.67-6.36-6.67-10.81,0-2.15.54-4.37,1.61-6.67l7.82-17.94c2.61-5.89,7.67-10.89,15.18-15,7.51-4.11,14.64-6.16,21.39-6.16h43.47c5.06,0,9.43,1.39,13.11,4.18,3.68,2.79,5.52,6.58,5.52,11.38,0,2.63-.61,5.34-1.84,8.13l-6.9,15.41c-2.45,5.67-7.82,10.66-16.1,14.95-7.51,3.99-14.72,5.98-21.62,5.98ZM2586.11,39.35c0-3.57-1.46-6.44-4.38-8.61s-6.14-3.26-9.67-3.26h-40.76c-5.53,0-10.98,1.63-16.35,4.88-5.37,3.26-9.13,7.37-11.28,12.33l-6.17,13.59c-.73,1.84-1.1,3.61-1.1,5.3,0,3.53,1.68,6.3,5.05,8.29,2.75,1.69,6.04,2.53,9.87,2.53h39c5.35,0,10.82-1.39,16.4-4.17,5.58-2.78,9.44-6.48,11.59-11.11l6.56-14.66c.83-1.86,1.24-3.56,1.24-5.12ZM2559.66,57.15c.15,4.29,2.15,8.36,5.98,12.19h-25.35c-2-1.84-3.15-5.52-3.46-11.04h-6.22l-5.07,11.04h-23.38l16.56-37.49h42.09c11.35,0,17.02,2.99,17.02,8.97,0,8.28-6.06,13.72-18.17,16.33ZM2554.14,44.04c0-1.69-1.24-2.53-3.73-2.53h-12.58l-3.71,8.97h12.88c1.53,0,3.1-.69,4.71-2.07,1.61-1.38,2.42-2.83,2.42-4.37Z"/>
</svg>