<svg width="25" height="28" viewBox="0 0 25 28" fill="none" xmlns="http://www.w3.org/2000/svg">
<path d="M11.3 0.901639C11.5 0.901639 11.6 1.00164 11.8 1.10164C10.6 1.60164 9.4 2.90164 8.8 5.70164L6.6 6.30164C7.3 4.30164 8.7 0.901639 11.3 0.901639ZM12.4 1.90164C12.6 2.50164 12.8 3.20164 12.8 4.30164C12.8 4.40164 12.8 4.40164 12.8 4.50164L9.9 5.30164C10.5 3.20164 11.5 2.30164 12.4 1.90164ZM15 3.70164L13.7 4.10164C13.7 4.00164 13.7 3.90164 13.7 3.80164C13.7 2.90164 13.6 2.20164 13.4 1.60164C14.1 1.80164 14.7 2.70164 15 3.70164ZM21.5 5.30164C21.5 5.20164 21.4 5.10164 21.3 5.10164C21.1 5.10164 19 4.90164 19 4.90164C19 4.90164 17.5 3.40164 17.3 3.30164C17.1 3.10164 16.8 3.20164 16.7 3.20164C16.7 3.20164 16.4 3.30164 15.9 3.50164C15.4 2.10164 14.5 0.801639 13 0.801639H12.9C12.5 0.201639 11.9 0.00163927 11.4 0.00163927C7.8 -0.0983607 6.1 4.40164 5.5 6.70164C4.7 6.90164 3.9 7.20164 3 7.50164C2.2 7.70164 2.2 7.80164 2.1 8.50164C2 9.00164 0 24.8016 0 24.8016L15.9 27.8016L24.5 25.9016C24.5 25.9016 21.5 5.50164 21.5 5.30164Z" fill="#D0D0D0"/>
<path d="M21.2 5.10164C21.1 5.10164 19 4.90164 19 4.90164C19 4.90164 17.5 3.40164 17.3 3.30164C17.2 3.20164 17.2 3.20164 17.1 3.20164L15.9 27.8016L24.5 25.9016C24.5 25.9016 21.5 5.50164 21.5 5.30164C21.5 5.20164 21.3 5.10164 21.2 5.10164Z" fill="#A7A7A7"/>
<path d="M13 9.90164L11.9 13.1016C11.9 13.1016 11 12.6016 9.8 12.6016C8.1 12.6016 8 13.6016 8 13.9016C8 15.3016 11.8 15.9016 11.8 19.3016C11.8 22.0016 10.1 23.7016 7.8 23.7016C5.1 23.7016 3.7 22.0016 3.7 22.0016L4.4 19.6016C4.4 19.6016 5.8 20.8016 7 20.8016C7.8 20.8016 8.1 20.2016 8.1 19.7016C8.1 17.8016 5 17.7016 5 14.6016C5 12.0016 6.9 9.50164 10.6 9.50164C12.3 9.40164 13 9.90164 13 9.90164Z" fill="#151515"/>
</svg>
