<?xml version="1.0" encoding="utf-8"?>
<!-- Generator: Adobe Illustrator 27.6.1, SVG Export Plug-In . SVG Version: 6.00 Build 0)  -->
<svg version="1.1" id="Layer_1" xmlns="http://www.w3.org/2000/svg" xmlns:xlink="http://www.w3.org/1999/xlink" x="0px" y="0px"
	 viewBox="0 0 16 16" style="enable-background:new 0 0 16 16;" xml:space="preserve">
<style type="text/css">
	.st0{fill-rule:evenodd;clip-rule:evenodd;fill:#FFFFFF;}
</style>
<path class="st0" d="M2,1C1.4,1,1,1.4,1,2v12c0,0.6,0.4,1,1,1h12c0.6,0,1-0.4,1-1V2c0-0.6-0.4-1-1-1H2z M2,16c-1.1,0-2-0.9-2-2V2
	c0-1.1,0.9-2,2-2h12c1.1,0,2,0.9,2,2v12c0,1.1-0.9,2-2,2H2z M10.8,5.9c0.2-0.2,0.2-0.5,0-0.7c-0.2-0.2-0.5-0.2-0.7,0c0,0,0,0,0,0
	L6,9.3V6.5C6,6.2,5.8,6,5.5,6S5,6.2,5,6.5v4C5,10.8,5.2,11,5.5,11h4c0.3,0,0.5-0.2,0.5-0.5S9.8,10,9.5,10H6.7
	C6.7,10,10.8,5.9,10.8,5.9z"/>
</svg>
