<?xml version="1.0" standalone="no"?>
<!DOCTYPE svg PUBLIC "-//W3C//DTD SVG 20010904//EN"
 "http://www.w3.org/TR/2001/REC-SVG-20010904/DTD/svg10.dtd">
<svg version="1.0" xmlns="http://www.w3.org/2000/svg"
 width="260.000000pt" height="260.000000pt" viewBox="0 0 260.000000 260.000000"
 preserveAspectRatio="xMidYMid meet">
<metadata>
Created by potrace 1.14, written by Peter Selinger 2001-2017
</metadata>
<g transform="translate(0.000000,260.000000) scale(0.100000,-0.100000)"
fill="#000000" stroke="none">
<path d="M0 1300 l0 -1300 1300 0 1300 0 0 1300 0 1300 -1300 0 -1300 0 0
-1300z m2001 787 c24 -13 58 -43 74 -66 l30 -43 3 -656 c2 -449 0 -669 -8
-694 -14 -50 -56 -97 -105 -119 -37 -17 -81 -19 -696 -19 l-656 0 -44 23 c-24
13 -57 43 -74 66 l-30 43 -3 651 c-2 478 0 663 9 695 14 50 70 110 120 128 26
9 196 13 685 13 l651 1 44 -23z"/>
<path d="M641 1996 c-51 -28 -50 -16 -51 -694 0 -690 -1 -681 56 -702 15 -6
282 -10 665 -10 l641 0 29 29 29 29 0 641 c0 383 -4 650 -10 665 -21 57 -12
56 -702 56 -506 -1 -638 -3 -657 -14z m941 -413 c10 -9 18 -25 18 -37 0 -13
-75 -95 -212 -233 l-212 -213 145 0 c163 0 183 -6 177 -55 -5 -51 -29 -56
-259 -53 -157 2 -210 6 -222 17 -15 12 -17 42 -17 240 0 240 2 251 46 251 48
0 54 -20 54 -183 l0 -152 217 218 c120 119 224 217 232 217 8 0 23 -7 33 -17z"/>
</g>
</svg>
